inDegrees=yes
name=ik_data_2024_11_07_17_14
DataType=double
version=3
OpenSimVersion=4.5.1
endheader
time	pelvis_tilt	pelvis_list	pelvis_rotation	pelvis_tx	pelvis_ty	pelvis_tz	hip_flexion_r	hip_adduction_r	hip_rotation_r	knee_angle_r	knee_angle_r_beta	ankle_angle_r	subtalar_angle_r	mtp_angle_r	hip_flexion_l	hip_adduction_l	hip_rotation_l	knee_angle_l	knee_angle_l_beta	ankle_angle_l	subtalar_angle_l	mtp_angle_l	lumbar_extension	lumbar_bending	lumbar_rotation	arm_flex_r	arm_add_r	arm_rot_r	elbow_flex_r	pro_sup_r	wrist_flex_r	wrist_dev_r	arm_flex_l	arm_add_l	arm_rot_l	elbow_flex_l	pro_sup_l	wrist_flex_l	wrist_dev_l
151.116	0.04028657708691789	-0.134374002284608	-95.20407327044789	0	0.9399999999999999	0	0.2023331981000644	0.09032346313877784	-0.1323556390514131	0.7389098328432998	0.01289640945847651	-5.088186801242683	0	0	0.1347023014651287	0.04283107765941178	-0.05879783654329334	0.5130146299519384	0.008953794403561643	-5.088186801242683	0	0	0	0	0	0	-8.929476661561845	0	72.53006710871519	46.466195007537	0	0	0	-8.929476661561845	0	72.53006710871519	46.466195007537	0	0
152.38	0.08564947831837347	-0.08883960336748879	-95.21138610043582	0	0.9399999999999999	0	0.310265174388572	0.06817344608029888	-0.1275946667542352	0.7505548813449167	0.01309965389638416	-5.088098626590424	0	0	0.1836363323351304	0.08178541486503609	-0.06914577180182388	0.5132261689177304	0.008957486455010979	-5.088098626590424	0	0	0	0	0	0	-8.93018306062633	0	72.530624138302	46.4652949956008	0	0	0	-8.93018306062633	0	72.530624138302	46.4652949956008	0	0
153.55	0.1189705839589628	-0.1687253093412509	-95.20271464006511	0	0.9399999999999999	0	0.3230773012792849	0.02949124689963841	-0.145562222821825	0.8069946667513418	0.01408471398084533	-5.087993928785136	0	0	0.1032639297188027	0.1258377023125278	-0.06512312302667438	0.5189892496093574	0.009058071188137982	-5.087993928785136	0	0	0	0	0	0	-8.931007055366585	0	72.53127592323263	46.46423293385303	0	0	0	-8.931007055366585	0	72.53127592323263	46.46423293385303	0	0
154.788	0.06447190175045565	-0.1451764350750633	-95.20796495559023	0	0.9399999999999999	0	0.3198677998117185	0.07057712962312129	-0.1507319326201218	0.8581242676335635	0.01497709386147069	-5.087923706889414	0	0	0.1169959892469741	0.07513488154280269	-0.06472451886729717	0.5104088879202549	0.008908315625651159	-5.087923706889414	0	0	0	0	0	0	-8.931560265617822	0	72.53171349887198	46.46352031248845	0	0	0	-8.931560265617822	0	72.53171349887198	46.46352031248845	0	0
155.967	0.01483494141674537	-0.1530820330467379	-95.20291110642783	0	0.9399999999999999	0	0.3004072106593345	0.1585839386764253	-0.1516579529556459	0.8056294718763339	0.01406088683534509	-5.087858153177772	0	0	0.1189083314432228	0.02612587284503769	-0.06352943909159281	0.5169385695495975	0.009022280069190177	-5.087858153177772	0	0	0	0	0	0	-8.932087862412205	0	72.53212912518786	46.46285017667722	0	0	0	-8.932087862412205	0	72.53212912518786	46.46285017667722	0	0
157.205	-0.01148606274137218	-0.1408979931994636	-95.21127049981827	0	0.9399999999999999	0	0.3657120851698594	0.2199780256611776	-0.154879955087275	0.8508571981210914	0.01485025957150675	-5.087738648917394	0	0	0.121923083656249	-0.005099424485645421	-0.06327702005576334	0.5160820360761479	0.009007330739924938	-5.087738648917394	0	0	0	0	0	0	-8.93304819839555	0	72.53288610990225	46.46162879923579	0	0	0	-8.93304819839555	0	72.53288610990225	46.46162879923579	0	0
158.943	0.0790047945169447	-0.001547546759232873	-95.2183373882324	0	0.9399999999999999	0	0.4545348133083786	0.1394648269955348	-0.1271021900828974	0.7939304181188694	0.01385669982790952	-5.08763413630289	0	0	0.2774765408040843	0.06937817764205803	-0.07264853576899069	0.5171108051571561	0.009025286147631248	-5.08763413630289	0	0	0	0	0	0	-8.933890036139166	0	72.53354845151617	46.46056116675781	0	0	0	-8.933890036139166	0	72.53354845151617	46.46056116675781	0	0
160.75	0.1251081668324472	0.04222940572279101	-95.21895868605873	0	0.9399999999999999	0	0.4483527362094763	0.04667018169046926	-0.1223941268101641	0.7314535200761394	0.01276627225063108	-5.087207548573155	0	0	0.3284861011283659	0.1047342315952557	-0.08036254609243666	0.5255096576784971	0.009171873777518075	-5.087207548573155	0	0	0	0	0	0	-8.937120670713673	0	72.53613288052227	46.45627037445523	0	0	0	-8.937120670713673	0	72.53613288052227	46.45627037445523	0	0
161.445	0.1131464995461554	0.06037683942552576	-95.22355967624154	0	0.9399999999999999	0	0.4233866941424226	0.01786787062141819	-0.1215159171352882	0.744830087100258	0.01299973738781565	-5.087186754329323	0	0	0.3551917385604418	0.09095083846733701	-0.0833663741705858	0.5486830054628565	0.00957632499506488	-5.087186754329323	0	0	0	0	0	0	-8.93729339446673	0	72.53626768894281	46.4560561467977	0	0	0	-8.93729339446673	0	72.53626768894281	46.4560561467977	0	0
162.596	0.09158674525855859	0.02038176244243844	-95.22633218252766	0	0.9399999999999999	0	0.4591552159026635	-0.1171862892116943	-0.1252470289134295	0.8081342136246469	0.01410460282576531	-5.087113460434177	0	0	0.3015017796563968	0.07339358339008346	-0.08359060916873924	0.5188879798707045	0.009056303697765854	-5.087113460434177	0	0	0	0	0	0	-8.937869554465363	0	72.53672376945269	46.4553123513584	0	0	0	-8.937869554465363	0	72.53672376945269	46.4553123513584	0	0
163.786	0.1465650973815509	-0.004913955560267072	-95.22066606629407	0	0.9399999999999999	0	0.4381624816275987	-0.08736232767353821	-0.1293022597036551	0.7924854474668152	0.01383148033243648	-5.087087889105672	0	0	0.2979447575288505	0.1363889550528395	-0.08481953488645748	0.5494356791541427	0.009589461629170962	-5.087087889105672	0	0	0	0	0	0	-8.938079272841051	0	72.53688782933655	46.45505005423133	0	0	0	-8.938079272841051	0	72.53688782933655	46.45505005423133	0	0
164.887	0.3077201762319221	-0.009787622141794091	-95.21615438690645	0	0.9399999999999999	0	0.3754665823304899	-0.2347727936727095	-0.1276957503352025	0.7989858511417155	0.01394493377927223	-5.087003607542282	0	0	0.2996618903569824	0.2997683359114832	-0.08131630996985163	0.528309441237412	0.009220739218964344	-5.087003607542282	0	0	0	0	0	0	-8.938757348908554	0	72.53742088056808	46.45419008812949	0	0	0	-8.938757348908554	0	72.53742088056808	46.45419008812949	0	0
166.789	0.2507691709505255	0.03786821956730228	-95.22797017788056	0	0.9399999999999999	0	0.409627753793404	-0.1444461401851199	-0.1278774840455475	0.8254265134439119	0.0144064103928535	-5.086932766015524	0	0	0.322511767927345	0.2344561353332214	-0.08415855320684372	0.5103267681548639	0.008906882365364122	-5.086932766015524	0	0	0	0	0	0	-8.939396717574827	0	72.53791035595823	46.4534429218321	0	0	0	-8.939396717574827	0	72.53791035595823	46.4534429218321	0	0
167.966	0.1473935416414607	-0.08682053912346985	-95.21259114768863	0	0.9399999999999999	0	0.3265884941847678	-0.005214622494712421	-0.1473536214948641	0.872963499289454	0.01523608731233215	-5.086836340376723	0	0	0.199003562252652	0.1420356194370702	-0.07476399881241368	0.5256486551601531	0.009174299741224953	-5.086836340376723	0	0	0	0	0	0	-8.940170464888579	0	72.53852013300889	46.45245795252232	0	0	0	-8.940170464888579	0	72.53852013300889	46.45245795252232	0	0
169.193	0.1232656745201796	-0.08945772325057257	-95.2129161328604	0	0.9399999999999999	0	0.3082715982490702	0.007615683106477372	-0.1521447969895059	0.8854379543507928	0.01545380762554458	-5.086812165913964	0	0	0.2130864894686651	0.123637004437164	-0.07705351142798975	0.549411858397717	0.009589045878541019	-5.086812165913964	0	0	0	0	0	0	-8.94038203004941	0	72.53868350835009	46.45220468788026	0	0	0	-8.94038203004941	0	72.53868350835009	46.45220468788026	0	0
170.37	0.05035844899107195	-0.08800590380310301	-95.21086855284037	0	0.9399999999999999	0	0.3035073866539079	0.142999487068776	-0.1480170246044313	0.8738995568862028	0.01525242459938372	-5.086700074207853	0	0	0.1797401204986323	0.04733418958090053	-0.06675624853811703	0.5119819315637459	0.008935770416507647	-5.086700074207853	0	0	0	0	0	0	-8.941261084762676	0	72.53938168148703	46.45106476337074	0	0	0	-8.941261084762676	0	72.53938168148703	46.45106476337074	0	0
171.569	0.1950742364746218	0.02256740629785191	-95.22545205933362	0	0.9399999999999999	0	0.34964177569092	-0.02316498549187429	-0.1308738115694388	0.8733062442734355	0.01524206934079732	-5.086563094908615	0	0	0.3055803450239183	0.1958496705126461	-0.07337553024461119	0.5097610689610015	0.008897009051855346	-5.086563094908615	0	0	0	0	0	0	-8.94235086948564	0	72.54024251508616	46.44966857161707	0	0	0	-8.94235086948564	0	72.54024251508616	46.44966857161707	0	0
172.738	0.1281985351328022	0.05461662097298791	-95.22831025729873	0	0.9399999999999999	0	0.4112691928632251	0.03121053573908454	-0.1345729045400392	0.8614936116303882	0.01503590000784759	-5.086493819900697	0	0	0.3308887609658456	0.111526070658923	-0.08593723998359015	0.5052140517099718	0.008817648629679896	-5.086493819900697	0	0	0	0	0	0	-8.942913384478464	0	72.54068541873281	46.44895710396995	0	0	0	-8.942913384478464	0	72.54068541873281	46.44895710396995	0	0
174.597	0.1314838870043933	-0.06039600316373935	-95.21465801368443	0	0.9399999999999999	0	0.2600778815044045	0.01330302386490909	-0.1353743823814983	0.8184051950977657	0.01428386526988257	-5.086375875414758	0	0	0.2158309243684191	0.1289244073775296	-0.06724412784319535	0.5176237267374288	0.009034238318011539	-5.086375875414758	0	0	0	0	0	0	-8.943877793068488	0	72.54144312609968	46.44774395877218	0	0	0	-8.943877793068488	0	72.54144312609968	46.44774395877218	0	0
